<svg data-v-0dd9719b="" version="1.0" xmlns="http://www.w3.org/2000/svg" xmlns:xlink="http://www.w3.org/1999/xlink" width="100%" height="100%" viewBox="0 0 340.000000 250.000000" preserveAspectRatio="xMidYMid meet" color-interpolation-filters="sRGB" style="margin: auto;"> <rect data-v-0dd9719b="" x="0" y="0" width="100%" height="100%" fill="#FFFFFF" fill-opacity="1" class="background"></rect> <rect data-v-0dd9719b="" x="0" y="0" width="100%" height="100%" fill="url(#watermark)" fill-opacity="1" class="watermarklayer"></rect> <g data-v-0dd9719b="" fill="#300000" class="icon-text-wrapper icon-svg-group iconsvg" transform="translate(71.7919921875,94.98348999023438)"><g class="iconsvg-imagesvg" transform="translate(0,0)"><g><rect fill="#300000" fill-opacity="0" stroke-width="2" x="0" y="0" width="60" height="60.033018159987996" class="image-rect"></rect> <svg x="0" y="0" width="60" height="60.033018159987996" filtersec="colorsb3275088942" class="image-svg-svg primary" style="overflow: visible;"><svg xmlns="http://www.w3.org/2000/svg" viewBox="0 -0.000057221815950470045 119.93415069580078 120.00004577636719"><defs><clipPath id="abc6873ee-894b-4989-8f83-475b2925b8c1" transform="translate(-.33 -.33)"><path fill="none" d="M0 0h120.59v120.59H0z"></path></clipPath></defs><g><g clip-path="url(#abc6873ee-894b-4989-8f83-475b2925b8c1)"><path d="M100.47 49.6c-14.41 7.97-21.46 38.95-46.8 46.37 0 0 16.09-10.87 15.86-17 0 0-35.23 30.68-67.37-9 0 0 48.26 36.16 84-22.32 2.28-3.73 7-9 16.6-5.58a11.89 11.89 0 0 0 8.08-.52c3.47-1.37 1.54 1.47-10.37 8.05zM59.89 0a59.82 59.82 0 0 0-39 14.39c5.93 13.41 18.9 33.38 44.07 33.28 0 0-34 2.92-49.9-27.49a61.85 61.85 0 0 0-4.52 5.68C17.8 38.54 34.44 57.29 68.37 53c0 0-31.36 17.26-64.15-15.4a57.32 57.32 0 0 0-2.44 7.55c10.25 9.26 36.82 27.91 72.64 13.26 0 0-32 33.93-74.42 4.4A60 60 0 1 0 59.89 0z" fill="#ea3637"></path></g></g></svg></svg> <!----></g></g> <g transform="translate(66,7.460033416748047)"><g data-gra="path-name" fill-rule="" class="tp-name iconsvg-namesvg" transform="translate(0,0)"><g transform="scale(0.96)"><g><path d="M7.6 0L0.14 0 12.55-30.02 19.89-30.02 32.31 0 24.84 0 21.91-6.93 10.53-6.93 7.6 0ZM20.52-12.29L16.25-22.77 11.97-12.29 20.52-12.29ZM53.91 0L41.67-22 41.67 0 35.55 0 35.55-30.02 43.74-30.02 55.67-7.65 55.67-30.02 61.74-30.02 61.74 0 53.91 0ZM82.8 0L67.73 0 67.73-5.35 81.45-5.35Q84.74-5.35 85.82-5.98L85.82-5.98Q87.39-6.93 87.39-8.82L87.39-8.82Q87.39-11.03 85.55-12.01L85.55-12.01Q84.51-12.6 82.22-12.6L82.22-12.6 76.64-12.6Q71.55-12.6 69.3-14.45L69.3-14.45Q67.91-15.62 67.12-17.37 66.33-19.13 66.33-21.15L66.33-21.15Q66.33-24.3 68.18-26.91L68.18-26.91Q69.98-29.43 73.94-29.88L73.94-29.88Q75.29-30.02 77.94-30.02L77.94-30.02 92.84-30.02 92.84-24.66 79.38-24.66Q76.37-24.61 75.38-24.39L75.38-24.39Q73.35-23.89 73.35-21.33L73.35-21.33Q73.35-19.17 75.06-18.45L75.06-18.45Q76.19-17.91 78.84-17.91L78.84-17.91 83.66-17.91Q87.35-17.91 89.15-17.28L89.15-17.28Q92.34-16.2 93.56-13.5L93.56-13.5Q94.5-11.34 94.5-8.87L94.5-8.87Q94.5-6.12 93.24-3.96L93.24-3.96Q91.49-0.9 87.98-0.27L87.98-0.27Q86.27 0 82.8 0L82.8 0ZM117.14-30.02L123.48-30.02 123.48 0 117.14 0 117.14-12.42 105.53-12.42 105.53 0 99.14 0 99.14-30.02 105.53-30.02 105.53-17.77 117.14-17.77 117.14-30.02ZM135.99 0L129.6 0 129.6-30.02 135.99-30.02 135.99 0Z" transform="translate(-0.14000000059604645, 30.020000457763672)"></path></g> <!----> <!----> <!----> <!----> <!----> <!----> <!----></g></g> <g data-gra="path-slogan" fill-rule="" class="tp-slogan iconsvg-slogansvg" fill="#300000" transform="translate(5,33.8192024230957)"><rect x="0" height="1" y="4.648000240325928" width="36.736005783081055"></rect> <rect height="1" y="4.648000240325928" width="36.736005783081055" x="83.68000984191895"></rect> <g transform="translate(39.736005783081055,0)"><g transform="scale(1.2000000000000002)"><path d="M4.41 0L0.94 0L0.94-8.58L4.45-8.58Q7.92-8.39 8.06-4.41L8.06-4.41Q7.88-0.09 4.41 0L4.41 0ZM4.27-7.64L2.11-7.64L2.11-0.98L4.36-0.98Q6.80-1.13 6.89-4.31L6.89-4.31Q6.84-7.55 4.27-7.64L4.27-7.64ZM11.70-8.58L12.88-8.58L12.88 0L11.70 0L11.70-8.58ZM22.52 0L21.67-2.48L18.20-2.48L17.31 0L16.14 0L19.38-8.58L20.69-8.58L23.78 0L22.52 0ZM19.94-7.31L18.58-3.52L21.25-3.52L19.98-7.31L19.94-7.31ZM35.06-8.58L35.06 0L33.94 0L33.94-5.06Q33.94-5.77 33.94-7.22L33.94-7.22L31.50 0L30.33 0L27.94-7.22L27.89-7.22Q27.89-6.70 27.94-5.67L27.94-5.67Q27.94-5.16 27.94-5.06L27.94-5.06L27.94 0L26.77 0L26.77-8.58L28.45-8.58L30.94-1.31L33.38-8.58L35.06-8.58Z" transform="translate(-0.9375, 8.578125)"></path></g></g></g></g></g><defs v-gra="od"></defs></svg>